
        <svg xmlns="http://www.w3.org/2000/svg" xmlns:xlink="http://www.w3.org/1999/xlink" version="1.1" width="3144.578313253012" 
        height="827.5621804846339" viewBox="0 0 3144.578313253012 827.5621804846339">
			
			<g transform="scale(7.228915662650603) translate(10, 10)">
				<defs id="SvgjsDefs8910"></defs><g id="SvgjsG8911" featureKey="monogramFeature-0" transform="matrix(2.25,0,0,2.25,19.047141633927822,-40.52057361602783)" fill="#d23535"><path d="M6.54 60 c-2.94 0 -5.22 -1.14 -6.12 -3.96 c-2.88 -8.16 9.12 -29.34 13.62 -34.8 c3.42 -4.02 9.42 -4.5 13.68 -0.24 c5.46 5.46 17.1 26.7 13.68 35.16 c-0.9 2.22 -2.82 3.84 -5.64 3.84 c-3.06 0 -9.78 -3.06 -14.4 -6.6 c-4.14 3.36 -10.02 6.6 -14.82 6.6 z M17.28 23.82 c-6.72 8.16 -16.92 30.72 -11.94 31.92 c3.48 0.96 9.78 -2.64 12.96 -5.16 c-2.22 -2.52 -4.5 -6.36 -3.84 -10.2 c1.44 -7.98 12.84 -7.68 13.8 0.18 c0.48 4.5 -1.68 7.56 -3.9 9.96 c4.14 3 9.72 5.34 11.4 5.34 c1.14 0 1.56 -0.6 1.8 -1.26 c2.16 -5.76 -7.14 -25.08 -12.72 -30.66 c-2.58 -2.58 -5.7 -2.28 -7.56 -0.12 z M18.54 41.16 c-0.3 1.74 0.6 3.96 2.76 6.6 c2.16 -2.4 3.18 -4.14 2.88 -6.72 c-0.3 -3.06 -4.98 -3.24 -5.64 0.12 z"></path></g><g id="SvgjsG8912" featureKey="nameFeature-0" transform="matrix(0.7059780115828826,0,0,0.7059780115828826,114.02151402889278,11.961290899365745)" fill="#ffffff"><path d="M13.027 40.39063 c-6.0547 0 -10.781 -2.9102 -11.641 -8.2031 l6.0547 -1.3867 c0.39063 3.1641 2.7148 4.8047 5.8203 4.8047 c2.3828 0 4.2773 -1.0547 4.2578 -3.4375 c-0.019531 -2.6563 -3.1445 -3.4961 -6.582 -4.5508 c-4.1406 -1.2891 -8.5742 -2.8125 -8.5742 -8.0078 c0 -5.2539 4.2969 -8.2227 9.9609 -8.2227 c4.9609 0 9.9609 2.0117 11.094 7.4219 l-5.6641 1.4063 c-0.52734 -2.8125 -2.4219 -4.043 -5.0781 -4.043 c-2.3633 0 -4.375 0.97656 -4.375 3.3008 c0 2.168 2.7734 2.8906 5.9766 3.8477 c4.2578 1.2891 9.2969 2.9297 9.2969 8.5547 c0 5.9961 -5.0195 8.5156 -10.547 8.5156 z M41.99184375 40.39063 c-6.0547 0 -10.781 -2.9102 -11.641 -8.2031 l6.0547 -1.3867 c0.39063 3.1641 2.7148 4.8047 5.8203 4.8047 c2.3828 0 4.2773 -1.0547 4.2578 -3.4375 c-0.019531 -2.6563 -3.1445 -3.4961 -6.582 -4.5508 c-4.1406 -1.2891 -8.5742 -2.8125 -8.5742 -8.0078 c0 -5.2539 4.2969 -8.2227 9.9609 -8.2227 c4.9609 0 9.9609 2.0117 11.094 7.4219 l-5.6641 1.4063 c-0.52734 -2.8125 -2.4219 -4.043 -5.0781 -4.043 c-2.3633 0 -4.375 0.97656 -4.375 3.3008 c0 2.168 2.7734 2.8906 5.9766 3.8477 c4.2578 1.2891 9.2969 2.9297 9.2969 8.5547 c0 5.9961 -5.0195 8.5156 -10.547 8.5156 z M77.9496875 16.934 l-10.469 0 l0 6.4063 l9.2773 0 l0 5.0977 l-9.2773 0 l0 6.3867 l10.469 0 l0 5.1758 l-16.367 0 l0 -28.223 l16.367 0 l0 5.1563 z M103.98484375 11.777000000000001 l0 5.1563 l-6.6992 0 l0 23.066 l-5.8008 0 l0 -23.066 l-6.7383 0 l0 -5.1563 l19.238 0 z M144.960875 40 l-2.0508 -5.8203 l-11.855 0 l-2.0508 5.8203 l-5.9961 0 l10.391 -28.223 l7.168 0 l10.391 28.223 l-5.9961 0 z M132.773875 29.277 l8.418 0 l-4.1992 -11.973 z M171.32778125 40.39063 c-8.3008 0 -14.434 -5.6445 -14.434 -14.512 s6.1328 -14.492 14.434 -14.492 c6.2891 0 11.328 3.2227 13.34 8.5742 l-5.4688 1.9922 c-1.25 -3.2813 -4.2383 -5.1758 -7.8711 -5.1758 c-4.8633 0 -8.5938 3.3984 -8.5938 9.1016 s3.7305 9.1211 8.5938 9.1211 c3.6328 0 6.6211 -1.9141 7.8711 -5.1953 l5.4688 1.9922 c-2.0117 5.3516 -7.0508 8.5938 -13.34 8.5938 z M221.035125 41.1719 l-4.8828 1.8555 l-3.6133 -4.0625 c-1.9922 0.91797 -4.2969 1.4258 -6.7969 1.4258 c-8.3984 0 -14.609 -5.6641 -14.609 -14.512 c0 -8.8672 6.2109 -14.492 14.609 -14.492 s14.609 5.625 14.609 14.492 c0 4.1992 -1.3867 7.6758 -3.75 10.176 z M196.972625 25.878999999999998 c0 6.0156 3.8086 9.4141 8.7695 9.4141 s8.7695 -3.3984 8.7695 -9.4141 c0 -5.7031 -3.8086 -9.1016 -8.7695 -9.1016 s-8.7695 3.3984 -8.7695 9.1016 z M240.117625 40.39063 c-6.1914 0 -11.035 -3.1641 -11.035 -10.273 l0 -18.34 l5.8594 0 l0 17.539 c0 4.2969 2.2852 5.8984 5.1758 5.8984 c2.9102 0 5.2148 -1.6211 5.2148 -5.8984 l0 -17.539 l5.8594 0 l0 18.34 c0 7.1094 -4.8633 10.273 -11.074 10.273 z M261.542925 40 l0 -28.223 l5.8594 0 l0 28.223 l-5.8594 0 z M287.69496875 40.39063 c-6.0547 0 -10.781 -2.9102 -11.641 -8.2031 l6.0547 -1.3867 c0.39063 3.1641 2.7148 4.8047 5.8203 4.8047 c2.3828 0 4.2773 -1.0547 4.2578 -3.4375 c-0.019531 -2.6563 -3.1445 -3.4961 -6.582 -4.5508 c-4.1406 -1.2891 -8.5742 -2.8125 -8.5742 -8.0078 c0 -5.2539 4.2969 -8.2227 9.9609 -8.2227 c4.9609 0 9.9609 2.0117 11.094 7.4219 l-5.6641 1.4063 c-0.52734 -2.8125 -2.4219 -4.043 -5.0781 -4.043 c-2.3633 0 -4.375 0.97656 -4.375 3.3008 c0 2.168 2.7734 2.8906 5.9766 3.8477 c4.2578 1.2891 9.2969 2.9297 9.2969 8.5547 c0 5.9961 -5.0195 8.5156 -10.547 8.5156 z M307.2851125 40 l0 -28.223 l5.8594 0 l0 28.223 l-5.8594 0 z M340.43015625 11.777000000000001 l0 5.1563 l-6.6992 0 l0 23.066 l-5.8008 0 l0 -23.066 l-6.7383 0 l0 -5.1563 l19.238 0 z M348.49605 40 l0 -28.223 l5.8594 0 l0 28.223 l-5.8594 0 z M377.77309375 40.39063 c-8.3008 0 -14.434 -5.6641 -14.434 -14.512 c0 -8.8672 6.1328 -14.492 14.434 -14.492 c8.2813 0 14.414 5.625 14.414 14.492 c0 8.8477 -6.1328 14.512 -14.414 14.512 z M377.77309375 35.0195 c4.8633 0 8.5938 -3.418 8.5938 -9.1406 c0 -5.7031 -3.7305 -9.1016 -8.5938 -9.1016 s-8.5938 3.3984 -8.5938 9.1016 c0 5.7227 3.7305 9.1406 8.5938 9.1406 z M420.48859375 11.777000000000001 l5.8398 0 l0 28.223 l-6.7773 0 l-12.5 -20.176 l0 20.176 l-5.8398 0 l0 -28.223 l6.6992 0 l12.578 20.059 l0 -20.059 z"></path></g><g id="SvgjsG8913" featureKey="sloganFeature-0" transform="matrix(0.9517035626958308,0,0,0.9517035626958308,124.14520887027419,51.59096257420014)" fill="#d23535"><path d="M14.492 20 l-3.2227 0 l-0.92773 -1.1621 c-1.2793 0.84961 -2.8027 1.3574 -4.4727 1.3574 c-2.8418 0 -4.9707 -1.4746 -4.9707 -4.1504 c0 -2.041 1.25 -3.0371 3.6328 -4.5215 l-0.11719 -0.14648 c-0.94727 -1.2012 -1.2695 -2.0215 -1.2695 -2.8125 c0 -0.9375 0.41016 -1.6504 1.0938 -2.1387 c0.66406 -0.48828 1.6016 -0.74219 2.6758 -0.74219 c2.373 0 3.8477 1.2012 3.8477 2.9297 c0 1.2305 -0.76172 2.2266 -2.7148 3.3984 l2.5488 3.1543 c0.72266 -1.1035 1.1133 -2.3828 1.1133 -3.4863 l2.5391 0 c0 2.002 -0.76172 3.9551 -2.041 5.4883 z M6.1133 7.811999999999999 c-0.21484 0.18555 -0.32227 0.46875 -0.32227 0.79102 c0 0.46875 0.22461 0.85938 0.74219 1.5234 l0.22461 0.2832 c1.0254 -0.61523 1.5137 -1.2402 1.5137 -1.8457 c0 -0.6543 -0.55664 -1.0547 -1.2695 -1.0547 c-0.38086 0 -0.67383 0.10742 -0.88867 0.30273 z M5.9863 17.8906 c1.0938 0 2.0703 -0.35156 2.8809 -0.9082 l-2.9688 -3.7305 c-1.4258 0.86914 -2.4023 1.4746 -2.4023 2.7246 c0 1.2598 1.0059 1.9141 2.4902 1.9141 z M48.632765625000005 20 l-2.9199 0 l-0.92773 -10.635 l-3.5742 10.635 l-1.8945 0 l-3.5742 -10.635 l-0.9375 10.635 l-2.9297 0 l1.1816 -14.111 l4.1797 0 l3.0078 8.8574 l3.0469 -8.8574 l4.1797 0 z M66.1381640625 20 l-1.0254 -2.9102 l-5.9277 0 l-1.0254 2.9102 l-2.998 0 l5.1953 -14.111 l3.584 0 l5.1953 14.111 l-2.998 0 z M60.0439640625 14.6387 l4.209 0 l-2.0996 -5.9863 z M85.888828125 5.888999999999999 l2.9199 0 l0 14.111 l-3.3887 0 l-6.25 -10.088 l0 10.088 l-2.9199 0 l0 -14.111 l3.3496 0 l6.2891 10.029 l0 -10.029 z M106.8998828125 20 l-1.0254 -2.9102 l-5.9277 0 l-1.0254 2.9102 l-2.998 0 l5.1953 -14.111 l3.584 0 l5.1953 14.111 l-2.998 0 z M100.8056828125 14.6387 l4.209 0 l-2.0996 -5.9863 z M123.115246875 20.19531 c-4.0723 0 -7.0703 -2.8125 -7.0703 -7.2168 c0 -4.4629 3.0664 -7.2852 7.2168 -7.2852 c2.7246 0 4.9805 1.2012 6.2109 3.3203 l-2.5684 1.3672 c-0.74219 -1.4453 -2.0703 -2.1387 -3.6426 -2.1387 c-2.4414 0 -4.2773 1.6797 -4.2773 4.668 c0 2.8809 1.7188 4.7363 4.3848 4.7363 c1.8066 0 3.4668 -0.89844 3.8672 -2.959 l-3.8574 0 l0 -2.3535 l6.6309 0 l0 7.666 l-2.3047 0 l0 -1.9531 c-0.9082 1.3379 -2.4316 2.1484 -4.5898 2.1484 z M146.2258203125 8.467 l-5.2344 0 l0 3.2031 l4.6387 0 l0 2.5488 l-4.6387 0 l0 3.1934 l5.2344 0 l0 2.5879 l-8.1836 0 l0 -14.111 l8.1836 0 l0 2.5781 z M170.410109375 20 l-2.9199 0 l-0.92773 -10.635 l-3.5742 10.635 l-1.8945 0 l-3.5742 -10.635 l-0.9375 10.635 l-2.9297 0 l1.1816 -14.111 l4.1797 0 l3.0078 8.8574 l3.0469 -8.8574 l4.1797 0 z M186.6555078125 8.467 l-5.2344 0 l0 3.2031 l4.6387 0 l0 2.5488 l-4.6387 0 l0 3.1934 l5.2344 0 l0 2.5879 l-8.1836 0 l0 -14.111 l8.1836 0 l0 2.5781 z M204.306796875 5.888999999999999 l2.9199 0 l0 14.111 l-3.3887 0 l-6.25 -10.088 l0 10.088 l-2.9199 0 l0 -14.111 l3.3496 0 l6.2891 10.029 l0 -10.029 z M224.0578515625 5.888999999999999 l0 2.5781 l-3.3496 0 l0 11.533 l-2.9004 0 l0 -11.533 l-3.3691 0 l0 -2.5781 l9.6191 0 z M232.871059375 23.5938 l-2.0117 0 l1.2207 -6.3867 l2.8906 0 z M255.94730625 17.4121 l4.4238 0 l0 2.5879 l-7.3535 0 l0 -14.111 l2.9297 0 l0 11.523 z M270.5322671875 17.4121 l4.4238 0 l0 2.5879 l-7.3535 0 l0 -14.111 l2.9297 0 l0 11.523 z M288.437528125 20.19531 c-4.1504 0 -7.2168 -2.8223 -7.2168 -7.2559 s3.0664 -7.2461 7.2168 -7.2461 c3.1445 0 5.6641 1.6113 6.6699 4.2871 l-2.7344 0.99609 c-0.625 -1.6406 -2.1191 -2.5879 -3.9355 -2.5879 c-2.4316 0 -4.2969 1.6992 -4.2969 4.5508 s1.8652 4.5605 4.2969 4.5605 c1.8164 0 3.3105 -0.95703 3.9355 -2.5977 l2.7344 0.99609 c-1.0059 2.6758 -3.5254 4.2969 -6.6699 4.2969 z"></path></g>
			</g>
		</svg>
	